<svg xmlns="http://www.w3.org/2000/svg" viewBox="0 0 295 180" style="enable-background:new 0 0 295 180" xml:space="preserve"><path d="M117.9 74c-4.2 2.3-7.7 3.9-10.8 5.9C84 94.7 61.3 110 42 129.6c-5.2 5.3-9.4 11.8-13.1 18.2-3.3 5.6-1.5 9.1 5 8.8 12.3-.5 25.1-.7 36.8-4 34.4-9.8 68.3-21.1 102.4-31.9 25.3-8 51-14.2 77.6-15.4 7.8-.4 15.9.5 23.5 2.2 13.6 3 20.4 16.1 15 28.7-1.6 3.7-5.5 6.9-9 9.2-3.5 2.2-7.4.9-10.1-2.5-2.6-3.2-2.1-6.6 0-10 3.9-6.3 3.4-7.5-4.2-8.7-17.1-2.6-34.1-.1-50.3 4.3-33.3 9.1-66.1 19.7-99 29.9-23.2 7.2-46.2 15.3-70.7 16.8-7 .4-14.5-.3-21.3-2.2-12.7-3.5-18.5-15.7-14.2-28.2 3.7-10.8 10-19.9 18.1-27.8 22.5-22 48-40 75.6-55.2 2-1.1 4.1-2.1 6.5-3.4-2.8-6.1-5.4-11.8-7.9-17.5-4.3-9.7-1.7-16 8.6-18.3 24.1-5.3 48.2-10.2 72.4-14.8 9.3-1.8 15.4 5.7 12.1 14.7-3.5 9.4-7.5 18.7-12 27.7-9.2 18.3-18.8 36.4-28.4 54.6-3.2 6.1-12.3 9.7-18.5 7-2.5-1.1-4.7-4.2-5.9-7-4.6-9.8-8.6-20-13.1-30.8zm8-24.4c4.7-1.9 8.6-3.8 12.7-5 5.2-1.5 9.4.8 10.8 5.3 1.3 4.3-.7 7.8-5.8 10-3.7 1.7-7.4 3.5-11.2 5.3 3.6 8.6 7 16.4 10.7 25.1 10.6-20.8 20.9-40.9 31.1-61l-1.2-1.2c-17.1 3.4-34.2 6.8-51.9 10.3 1.9 4.6 3.3 7.8 4.8 11.2z"/></svg>