<svg xmlns="http://www.w3.org/2000/svg" viewBox="0 0 181 278" style="enable-background:new 0 0 181 278" xml:space="preserve"><path d="M48.8 6c5.3 2.1 12.3 4.5 19 7.5 23.3 10.6 46.3 21.6 69.7 32 13.9 6.2 20.4 16.8 16.6 29.1-3.6 11.8-16.7 19.7-30 14.5-29.8-11.8-59.2-24.8-88.2-38.6-10.1-4.8-15.6-14.7-12.2-27.1C26.9 11.7 35.9 7.7 48.8 6zM115.3 114.2c4.3 1.1 9.7 1.9 14.5 4 10 4.5 15.3 12.8 13.9 23.8-1.3 11-8.3 17.5-19.3 19.6-26.6 5-53.3 10-79.9 15-1.6.3-3.2.7-4.9.8-14.3 1.4-26-6.7-28.6-19.8-2.3-11.5 5.1-23.7 18.3-27 21.2-5.2 42.7-9.1 64.1-13.3 6.8-1.3 13.8-2 21.9-3.1zM101.7 273c-19.1.1-30.5-15.2-25.1-29.9 1.9-5.2 5.3-10.3 9.1-14.4 15-16 30.2-31.7 45.7-47.2 10.8-10.9 23.6-12.2 33.3-4.1 10 8.3 11.2 22.6 1 34.3-15.6 18.1-32 35.7-48.8 52.8-4.7 4.6-11.9 6.7-15.2 8.5z"/></svg>