<svg xmlns="http://www.w3.org/2000/svg" viewBox="0 0 181 278" style="enable-background:new 0 0 181 278" xml:space="preserve"><path d="M64 191.4c2.3.8 6.6 1.7 10.3 3.7 22.8 12.6 45.7 25 68.1 38.4 5.8 3.4 10.4 9.6 14.1 15.4 4.5 7.1 2.9 15.8-3.3 20.4-5.3 3.9-13.3 4.5-20.3 5.7-2.4.4-5.4-1.7-7.8-3.1-24.6-14.5-49.2-28.9-73.6-43.8-8.3-5-12.7-12.6-9.7-22.7 3-10 10.3-14.1 22.2-14zM134.1 28.2c-2.1 3.2-4.6 11-10 15.2-22 17-44.7 33.2-67.6 49.1-10.1 7-21.5 4.5-27.7-4.1-5.9-8.2-5-19.8 4-27C55.4 43.4 78.3 25.6 102 9c14.3-10.1 31.6-1.1 32.1 19.2zM109.7 112.1c10.4 0 20.8-.6 31.1.2 13.1 1 22.1 9.9 22.2 20.6.1 11.1-9.6 20.5-23.1 20.7-20 .3-40.1.1-60.1-.7-13.1-.6-21.9-9.9-21.7-20.8.3-11.4 9.9-19.4 23.7-19.7 4.6-.1 9.3-.1 13.9-.1 4.7-.2 9.4-.1 14-.2z"/></svg>