<svg xmlns="http://www.w3.org/2000/svg" viewBox="0 0 800 50" style="enable-background:new 0 0 800 50" xml:space="preserve"><path d="M722.4 31.5c-25.6-1.4-48.4-2.6-71.2-4-16.3-1-32.7-.7-47.9 2-44.2 8-88.1 6.2-132.7.2-27.9-3.7-56.2-6.7-84.6-9.3-30.6-2.8-59.6.2-86.6 7.8-16.5 4.6-33 9.4-51.8 11.5-22.4 2.5-44.8 1.1-67.1-.9-20.5-1.8-40.7-4.4-61.2-6.2-33.5-3-64.3-.1-91.2 10.6-1.3.5-2.8 1-4.4 1.4-4.5 1-9.5.3-11.6-1.7-2.4-2.2-1.3-4.1 2.4-5.7 30.7-12.6 65.6-17.9 105.2-14.5 23.2 2 46 4.8 69.2 6.8 19.4 1.7 39.4 3.1 58.3-.1 14.6-2.5 28.5-6 42-9.8 23.3-6.4 48.2-10.4 74.7-10 19.7.3 39.5 1.9 58.9 3.9 26.8 2.8 53.1 6.8 79.8 9.7 28.3 3.1 56.6 3.1 84.3-1.7 25.3-4.4 51.2-5 77.9-3.3 25.2 1.7 50.6 2.5 76 3 10.7.2 21.6-1.1 32.3-2 4.9-.4 8.9-.2 11.5 2 2.6 2.3 1.2 4.6-2.8 5.9-4.6 1.4-9.9 2.9-15.1 3.2-15.5.8-31.3.9-44.3 1.2z"/></svg>